<?xml version="1.0" standalone="no"?><svg xmlns="http://www.w3.org/2000/svg" viewBox="0 0 1440 320"><path fill="#ffffff" fill-opacity="1" d="M0,128L17.1,154.7C34.3,181,69,235,103,250.7C137.1,267,171,245,206,202.7C240,160,274,96,309,90.7C342.9,85,377,139,411,181.3C445.7,224,480,256,514,234.7C548.6,213,583,139,617,122.7C651.4,107,686,149,720,165.3C754.3,181,789,171,823,192C857.1,213,891,267,926,245.3C960,224,994,128,1029,101.3C1062.9,75,1097,117,1131,112C1165.7,107,1200,53,1234,26.7C1268.6,0,1303,0,1337,48C1371.4,96,1406,192,1423,240L1440,288L1440,320L1422.9,320C1405.7,320,1371,320,1337,320C1302.9,320,1269,320,1234,320C1200,320,1166,320,1131,320C1097.1,320,1063,320,1029,320C994.3,320,960,320,926,320C891.4,320,857,320,823,320C788.6,320,754,320,720,320C685.7,320,651,320,617,320C582.9,320,549,320,514,320C480,320,446,320,411,320C377.1,320,343,320,309,320C274.3,320,240,320,206,320C171.4,320,137,320,103,320C68.6,320,34,320,17,320L0,320Z"></path></svg>